<svg xmlns="http://www.w3.org/2000/svg" viewBox="168 220 720 356" role="img" aria-label="SESH LAB.">
<defs>
<linearGradient id="lab-grad" gradientUnits="userSpaceOnUse" x1="812" y1="399" x2="812" y2="506">
<stop offset="0" stop-color="#59E86C"/>
<stop offset="1" stop-color="#16C8D8"/>
</linearGradient>
</defs>
<g id="sesh" fill="currentColor">
  <path d="
M411.000061,275.839447 
	C431.832611,275.842896 452.165253,275.813568 472.497711,275.860809 
	C487.202759,275.894989 496.538116,285.072266 496.710938,299.829590 
	C496.861176,312.660675 496.789337,325.495026 496.730804,338.327576 
	C496.703949,344.216919 494.837158,346.463165 489.941162,346.947601 
	C484.139130,347.521698 481.735535,345.841400 480.831696,339.924103 
	C480.262787,336.199585 478.036469,335.439117 474.871033,335.447662 
	C464.704865,335.475006 454.538574,335.442108 444.372314,335.441071 
	C423.039795,335.438934 401.707184,335.405365 380.374817,335.462952 
	C372.723328,335.483612 370.824768,337.480072 370.894257,344.897858 
	C370.953186,351.188782 372.844421,353.140289 379.395935,353.158234 
	C400.561646,353.216156 421.727600,353.177795 442.893463,353.195404 
	C449.472809,353.200867 451.968231,355.384338 451.947296,361.012299 
	C451.926300,366.655182 449.501740,368.797302 442.829315,368.807831 
	C421.996826,368.840698 401.164246,368.801178 380.331726,368.827301 
	C371.937469,368.837830 367.648743,375.079620 371.581482,382.455933 
	C372.719696,384.590759 376.609161,386.201752 379.339996,386.368164 
	C387.642365,386.874115 395.994904,386.559143 404.327911,386.559418 
	C426.327057,386.560120 448.326263,386.580994 470.325348,386.546509 
	C478.782501,386.533234 479.962952,385.439850 480.856018,376.982239 
	C481.347931,372.323883 484.236176,371.081329 488.437683,370.950592 
	C492.765228,370.815918 496.149261,371.593536 496.637695,376.674133 
	C496.796661,378.327423 496.750580,380.003143 496.751038,381.668610 
	C496.759064,411.167419 496.768555,440.666260 496.758850,470.165070 
	C496.753082,487.714539 487.928375,496.461212 470.253723,496.461792 
	C430.421906,496.463043 390.590118,496.467285 350.758301,496.449310 
	C334.307098,496.441864 325.619324,487.953918 325.560486,471.684937 
	C325.486389,451.186005 325.497437,430.686401 325.560791,410.187408 
	C325.602905,396.564819 333.393738,388.027191 346.897583,386.575378 
	C353.297302,385.887329 355.011169,384.071777 355.033722,377.674133 
	C355.071869,366.841431 355.052460,356.008423 355.028046,345.175598 
	C355.009613,337.001129 353.629364,335.493408 345.462921,335.478882 
	C313.464264,335.421936 281.465393,335.430328 249.466690,335.458496 
	C233.318924,335.472717 224.261322,326.597626 224.201447,310.562927 
	C224.186523,306.563141 224.159195,302.562714 224.209488,298.563477 
	C224.374832,285.413422 233.831924,275.900818 247.006836,275.887146 
	C301.504517,275.830658 356.002289,275.848755 411.000061,275.839447 
z
"/>
  <path d="
M604.397339,419.001953 
	C604.393799,415.502808 604.358398,412.502777 604.392395,409.503510 
	C604.535217,396.898987 612.903442,387.774139 625.486755,386.474518 
	C632.334412,385.767273 633.812317,384.221985 633.839844,377.432220 
	C633.883057,366.766785 633.871582,356.101074 633.849243,345.435516 
	C633.831726,337.048431 632.207031,335.438080 623.981384,335.439728 
	C591.651367,335.446136 559.321045,335.375885 526.991394,335.488159 
	C517.048157,335.522675 508.601837,331.977539 505.199860,322.702301 
	C500.972443,311.176605 500.560852,298.794952 505.757019,287.243164 
	C509.068359,279.881622 515.702576,275.990082 523.848633,275.962311 
	C568.343323,275.810547 612.838745,275.756226 657.333496,275.851013 
	C669.276550,275.876465 678.488342,285.401886 678.978821,297.689301 
	C679.178101,302.680786 679.111023,307.688721 679.000671,312.685577 
	C678.722778,325.270813 670.647644,334.030579 658.192078,335.386383 
	C650.656799,336.206604 646.824768,342.866089 650.508484,349.552246 
	C651.480103,351.315765 654.419861,352.986420 656.474548,353.009186 
	C678.302551,353.251221 700.134705,353.214569 721.964905,353.097778 
	C726.789062,353.071960 728.836853,350.499908 728.987793,345.304840 
	C729.185364,338.506409 727.656067,336.214111 722.465942,335.528992 
	C706.235291,333.386475 699.814209,326.081787 699.766357,309.693146 
	C699.754211,305.526947 699.683105,301.358765 699.780212,297.194794 
	C700.049438,285.647400 709.172485,276.182220 720.732300,275.894836 
	C731.390991,275.629852 742.066772,275.649261 752.725891,275.912323 
	C764.397583,276.200409 773.435974,285.594421 773.932190,297.656250 
	C774.137512,302.647644 774.077148,307.655457 773.979614,312.652710 
	C773.736023,325.139465 765.664246,333.917114 753.171387,335.404327 
	C745.686523,336.295380 744.814331,337.241699 744.796021,344.792053 
	C744.769348,355.790863 744.758179,366.789886 744.795532,377.788635 
	C744.817749,384.336243 746.024292,385.676361 752.356140,386.543488 
	C766.563599,388.489075 773.950928,396.778229 773.991943,411.051666 
	C774.050354,431.382782 774.055542,451.714355 773.983582,472.045380 
	C773.929871,487.204834 764.791077,496.367523 749.765076,496.455566 
	C740.766296,496.508301 731.766357,496.533691 722.768005,496.450470 
	C709.258057,496.325531 700.007080,487.471863 699.872498,473.999176 
	C699.651245,451.837128 699.696533,429.670929 699.817810,407.507507 
	C699.877869,396.535736 708.447876,388.142212 720.701416,386.547424 
	C727.183899,385.703735 728.898926,383.991882 728.963684,378.300690 
	C729.049194,370.783630 727.181213,368.839417 719.621033,368.829254 
	C699.289734,368.801910 678.958496,368.805115 658.627197,368.828552 
	C652.083618,368.836090 650.078735,370.428406 649.794678,375.631653 
	C649.344482,383.879242 650.650452,385.677124 657.713318,386.533325 
	C671.189270,388.166962 678.933777,396.675537 679.003967,410.340515 
	C679.111877,431.337799 679.099976,452.336426 679.001648,473.333832 
	C678.937561,487.024445 669.339417,496.393097 655.531189,496.462036 
	C646.532349,496.506989 637.532959,496.492462 628.533997,496.459564 
	C613.650024,496.405212 604.545227,487.475494 604.427307,472.494629 
	C604.288208,454.831238 604.396484,437.165894 604.397339,419.001953 
z
"/>
  <path d="
M576.783081,412.186218 
	C576.394470,407.641815 573.719421,406.797058 570.110168,406.810669 
	C553.280701,406.874084 536.450806,406.855194 519.621155,406.809296 
	C508.682220,406.779480 501.936035,400.360565 502.184174,389.505127 
	C502.365387,381.578186 502.160156,373.277649 504.419495,365.839966 
	C508.932068,350.984497 521.911987,341.913330 537.664246,341.677490 
	C560.820740,341.330780 583.986694,341.481873 607.147400,341.630127 
	C615.644165,341.684540 621.315125,346.864838 622.270691,355.259155 
	C622.775940,359.697662 622.857422,364.260864 622.465027,368.709076 
	C621.658752,377.850586 615.769714,383.099670 606.517822,383.126465 
	C580.523499,383.201721 554.528748,383.198090 528.534424,383.131226 
	C524.538635,383.120941 521.634277,383.940430 521.310974,388.633820 
	C520.944458,393.953339 522.669678,395.982910 528.090210,395.994141 
	C544.919983,396.028961 561.749878,395.974945 578.579651,396.016541 
	C589.258423,396.042908 595.829712,402.333984 595.934509,412.991180 
	C596.091797,428.986084 596.216125,444.988342 595.909485,460.978943 
	C595.526489,480.954437 579.483521,496.367493 559.471008,496.459503 
	C552.972534,496.489380 546.473328,496.502502 539.975220,496.442688 
	C517.775757,496.238342 502.645081,481.328827 502.321899,459.059692 
	C502.121246,445.232697 502.280304,431.399536 502.364716,417.569702 
	C502.403595,411.197327 503.509277,410.226257 510.068848,410.186493 
	C511.901459,410.175354 513.734436,410.219269 515.566956,410.202087 
	C518.648804,410.173218 520.709961,411.365723 521.075134,414.675812 
	C521.445129,418.030243 523.581421,419.027039 526.653320,419.018402 
	C541.483337,418.976685 556.313843,418.944366 571.143616,419.013306 
	C575.664062,419.034332 576.867554,416.455078 576.783081,412.186218 
z
"/>
  <path d="
M231.671936,481.209167 
	C226.735046,473.720306 224.878830,465.803802 224.996109,457.219971 
	C225.178192,443.889740 225.014328,430.555054 225.042526,417.222382 
	C225.054901,411.378693 226.200089,410.274597 232.087112,410.189606 
	C234.253067,410.158325 236.606247,409.672028 238.535385,410.352844 
	C240.556671,411.066162 243.196182,412.607849 243.749969,414.360992 
	C244.895264,417.986664 246.918411,419.038330 250.330521,419.024933 
	C264.829681,418.967957 279.329742,418.928284 293.828247,419.041656 
	C298.200470,419.075836 299.831848,416.917389 299.812378,412.920807 
	C299.792755,408.892273 297.986847,406.793549 293.721619,406.811432 
	C277.555969,406.879242 261.373383,406.383118 245.229309,406.975220 
	C233.387070,407.409515 223.565750,401.523010 224.860306,386.295868 
	C225.366257,380.344604 224.810745,374.183380 226.147202,368.445862 
	C229.584091,353.691071 242.982025,342.280670 258.088226,341.901123 
	C282.070923,341.298523 306.077759,341.427795 330.071564,341.612854 
	C339.060059,341.682159 344.794220,347.998962 345.130798,356.995972 
	C345.255341,360.324738 345.226990,363.662262 345.170990,366.994171 
	C344.997803,377.301880 339.355927,383.078064 328.982025,383.118958 
	C302.983521,383.221436 276.984375,383.144623 250.985489,383.172058 
	C245.438843,383.177917 244.019058,384.682922 243.988602,389.802155 
	C243.959564,394.686646 246.667648,396.052277 251.027985,396.032928 
	C267.693634,395.958862 284.359802,395.981140 301.025696,396.013336 
	C311.557617,396.033691 318.177216,401.414429 318.438873,411.782013 
	C318.879913,429.258453 319.155731,446.803619 318.103912,464.235596 
	C316.982391,482.823151 301.096802,496.408081 282.410553,496.462524 
	C275.577576,496.482452 268.743195,496.383484 261.911682,496.485291 
	C249.290573,496.673309 239.411743,491.477539 231.671936,481.209167 
z
"/>
</g>
<g id="lab" fill="url(#lab-grad)">
  <path d="
M806.075317,504.881714 
	C798.077026,505.449219 798.063660,505.449249 798.043640,497.639618 
	C798.026550,490.984131 798.037476,484.328583 798.050171,477.673065 
	C798.062195,471.346710 798.070190,471.346710 804.956665,471.947388 
	C806.381226,473.498901 807.209534,474.706451 807.640381,476.007385 
	C802.799927,476.933899 802.004028,479.455322 804.077271,486.436157 
	C804.081787,488.109009 804.111572,489.395599 803.897949,491.025696 
	C803.528015,494.117188 803.401489,496.865234 803.269897,499.723633 
	C805.560791,500.003723 807.195129,500.203552 808.675293,500.581360 
	C807.705933,502.133514 806.890625,503.507599 806.075317,504.881714 
z
"/>
  <path d="
M806.154602,432.887024 
	C804.521606,432.887024 802.888550,432.887024 800.662903,432.887024 
	C800.662903,422.500732 800.593628,412.385223 800.778564,402.274384 
	C800.795532,401.344330 802.434692,400.443939 803.320557,399.529785 
	C804.174927,400.484589 805.734680,401.414459 805.769470,402.398254 
	C805.999146,408.887207 805.852356,415.388367 805.938477,421.884094 
	C805.964539,423.848999 806.339539,425.809265 806.839966,428.411133 
	C806.801697,430.329407 806.478149,431.608215 806.154602,432.887024 
z
"/>
  <path d="
M808.037781,475.914001 
	C807.209534,474.706451 806.381226,473.498901 805.308960,472.077820 
	C807.283447,471.772522 809.502075,471.680817 812.512512,471.665222 
	C813.557373,471.708862 813.810303,471.676392 814.063232,471.643951 
	C815.323792,475.216888 816.776611,478.740021 817.723572,482.394226 
	C817.994812,483.440674 816.696289,484.834808 816.311279,486.127228 
	C815.932922,487.397675 815.125793,489.359894 815.669434,489.953003 
	C819.313721,493.929138 818.756836,497.506226 815.499207,501.328674 
	C814.867981,502.069366 815.084045,503.532043 814.859436,504.983185 
	C812.177429,504.983185 809.565308,504.983185 806.514221,504.932434 
	C806.890625,503.507599 807.705933,502.133514 809.109619,500.517700 
	C810.711609,499.046844 812.448242,497.887665 812.575500,496.572723 
	C812.785522,494.402374 814.237915,491.108612 810.022949,490.265350 
	C809.017273,488.685669 808.035400,487.424164 807.476562,486.110779 
	C809.350159,485.966125 810.800659,485.873413 812.322998,485.776093 
	C812.322998,482.481201 812.322998,479.455872 812.322998,476.325623 
	C810.642944,476.164246 809.340332,476.039124 808.037781,475.914001 
z
"/>
  <path d="
M804.236389,459.282623 
	C803.779053,462.362640 803.321716,465.442627 802.849854,468.620514 
	C799.554199,469.866089 797.595886,468.934937 798.139709,465.148590 
	C799.087402,458.550293 800.292480,451.988403 801.460815,445.423920 
	C801.520264,445.089752 802.250427,444.874908 803.154785,444.464844 
	C804.418762,445.878815 805.196289,447.432434 805.878296,449.342896 
	C805.583374,451.399231 805.384033,453.098755 805.185974,455.084656 
	C804.870300,456.674896 804.553345,457.978760 804.236389,459.282623 
z
"/>
  <path d="
M812.480347,440.684387 
	C814.269531,448.874420 816.174194,457.042999 817.707153,465.280701 
	C817.907715,466.358398 816.199890,467.791260 815.375916,469.059601 
	C814.462646,467.902496 813.549316,466.745392 812.769409,465.131836 
	C812.902771,464.675385 812.867371,464.618713 812.867371,464.618713 
	C812.640564,463.078156 812.413757,461.537598 812.148438,459.329926 
	C811.711914,457.390076 811.314087,456.117310 810.931885,454.434814 
	C809.961548,450.960999 808.975586,447.896881 808.205933,444.666138 
	C809.775024,443.227783 811.127686,441.956085 812.480347,440.684387 
z
"/>
  <path d="
M812.361816,440.307007 
	C811.127686,441.956085 809.775024,443.227783 807.860291,444.783020 
	C806.856689,446.373077 806.415222,447.679565 805.973755,448.986084 
	C805.196289,447.432434 804.418762,445.878815 803.368652,444.146729 
	C803.482849,441.403839 803.869812,438.839355 804.243713,436.361450 
	C810.556763,434.409485 811.346191,434.775543 812.361816,440.307007 
z
"/>
  <path d="
M825.964844,502.741211 
	C824.030273,504.019135 822.114624,504.847382 819.463257,505.993713 
	C819.463257,501.643616 819.463257,498.750824 819.463257,495.912659 
	C825.838867,494.182434 825.885437,494.229950 825.964844,502.741211 
z
"/>
  <path d="
M806.597412,432.940369 
	C806.478149,431.608215 806.801697,430.329407 807.174011,428.721130 
	C809.854980,428.303833 812.513367,427.972656 815.106262,428.251038 
	C816.106934,428.358490 816.958984,429.849792 817.878784,430.710571 
	C816.903259,431.493591 815.993042,432.825653 814.939209,432.951111 
	C812.341309,433.260376 809.677490,433.015686 806.597412,432.940369 
z
"/>
  <path d="
M810.916199,454.844574 
	C811.314087,456.117310 811.711914,457.390076 811.985107,458.976654 
	C809.593018,459.329803 807.325562,459.369080 804.647217,459.345520 
	C804.553345,457.978760 804.870300,456.674896 805.585938,455.132507 
	C807.628540,454.877533 809.272339,454.861053 810.916199,454.844574 
z
"/>
  <path d="
M812.818481,464.551758 
	C812.867371,464.618713 812.902771,464.675385 812.875793,464.689545 
	C812.848816,464.703705 812.769653,464.484802 812.818481,464.551758 
z
"/>
  <path d="
M813.890320,471.552460 
	C813.810303,471.676392 813.557373,471.708862 812.923706,471.711609 
	C812.934509,471.608246 813.325989,471.534607 813.890320,471.552460 
z
"/>
  <path d="
M810.022949,490.265350 
	C808.355469,490.644318 806.664246,490.705109 804.557129,490.724060 
	C804.111572,489.395599 804.081787,488.109009 804.077271,486.436157 
	C804.842224,486.042664 805.581909,486.035461 806.687500,486.095459 
	C808.035400,487.424164 809.017273,488.685669 810.022949,490.265350 
z
"/>
</g>
</svg>
